HIERARCHY
ROOT Hips
{
	OFFSET 0.000000 0.000000 0.000000 
	CHANNELS 6 Xposition Yposition Zposition Yrotation Zrotation Xrotation 
	JOINT Lumbar
	{
		OFFSET 0.000000 0.000000 0.000000 
		CHANNELS 3 Zrotation Xrotation Yrotation
		JOINT Neck
		{
			OFFSET 0.000000 0.445665 0.000000 
			CHANNELS 3 Zrotation Xrotation Yrotation
			End Site
			{
				OFFSET 0.000000 0.227535 0.000000 
			}
		}
		JOINT RightShoulder
		{
			OFFSET 0.019635 0.377685 0.194865 
			CHANNELS 3 Zrotation Xrotation Yrotation
			JOINT RightElbow
			{
				OFFSET 0.000000 -0.243375 0.000000 
				CHANNELS 2 Zrotation Yrotation
				JOINT RightWrist
				{
					OFFSET 0.000000 -0.264825 0.000000 
					CHANNELS 2 Zrotation Xrotation
					End Site
					{
						OFFSET 0.006600 -0.176220 0.000990 
					}
				}
			}
		}
		JOINT LeftShoulder
		{
			OFFSET 0.019635 0.377685 -0.194865 
			CHANNELS 3 Zrotation Xrotation Yrotation
			JOINT LeftElbow
			{
				OFFSET 0.000000 -0.243375 0.000000 
				CHANNELS 2 Zrotation Yrotation
				JOINT LeftWrist
				{
					OFFSET 0.000000 -0.264825 0.000000 
					CHANNELS 2 Zrotation Xrotation
					End Site
					{
						OFFSET 0.006600 -0.176220 -0.000990 
					}
				}
			}
		}
	}
	JOINT RightHip
	{
		OFFSET 0.052140 -0.069960 0.075570 
		CHANNELS 3 Zrotation Xrotation Yrotation
		JOINT RightKnee
		{
			OFFSET 0.000000 -0.402270 0.000000 
			CHANNELS 1 Zrotation
			JOINT RightAnkle
			{
				OFFSET 0.000000 -0.404085 0.000000 
				CHANNELS 3 Zrotation Xrotation Yrotation
				End Site
				{
					OFFSET 0.204105 -0.089430 0.008415 
				}
			}
		}
	}
	JOINT LeftHip
	{
		OFFSET 0.052140 -0.069960 -0.075570 
		CHANNELS 3 Zrotation Xrotation Yrotation
		JOINT LeftKnee
		{
			OFFSET 0.000000 -0.402270 0.000000 
			CHANNELS 1 Zrotation
			JOINT LeftAnkle
			{
				OFFSET 0.000000 -0.404085 0.000000 
				CHANNELS 3 Zrotation Xrotation Yrotation
				End Site
				{
					OFFSET 0.204105 -0.089430 -0.008415 
				}
			}
		}
	}
}
MOTION
Frames: 16
Frame Time: 0.02
0.42295 -0.13113 0.01232 -182.22177 -49.84225 -0.96538 8.04732 4.67419 0.97703 1.65263 -5.2703 -0.83006 28.99956 -21.35477 18.43583 77.10749 82.44098 -11.40113 -9.41653 13.45659 26.76447 -13.83165 81.51639 -83.34854 -9.78375 4.33246 101.20464 -9.26179 -5.36156 -63.96651 -7.46711 -2.9822 -2.20997 101.62298 12.17652 3.81479 -64.3277 -8.31524 1.1172 1.22153
0.41522 -0.12163 0.0097 -182.00435 -49.40844 -0.7761 8.60914 4.70332 0.80846 2.10829 -4.96589 -0.83008 30.75213 -21.06055 19.40478 78.69966 84.88616 -12.02523 -9.24885 14.82022 26.60327 -15.00455 82.90359 -83.31297 -10.09331 4.69711 98.98254 -9.32381 -5.97662 -62.11069 -7.49352 -2.94281 -2.188 99.3023 12.38829 4.60819 -62.26536 -8.41893 1.01791 1.1733
0.40705 -0.11246 0.0069 -181.73779 -48.68186 -0.55966 9.06288 4.74244 0.61897 2.5626 -4.65956 -0.83009 32.61712 -20.82149 20.48937 79.84202 87.94068 -12.77809 -8.79274 16.42857 26.40344 -16.30714 84.25698 -83.32903 -10.58247 5.20957 96.45075 -9.41603 -6.6197 -60.29601 -7.51277 -2.90081 -2.16454 96.65287 12.6271 5.50429 -60.20794 -8.52514 0.90507 1.11868
0.39903 -0.10319 0.00418 -181.50155 -48.09382 -0.36001 9.5844 4.7776 0.43848 3.01612 -4.35883 -0.8301 34.42858 -20.54713 21.52749 81.11772 90.64627 -13.44193 -8.49169 17.94279 26.20459 -17.55374 85.57865 -83.32534 -10.96658 5.64429 94.06707 -9.4648 -7.19618 -58.46119 -7.53641 -2.86645 -2.14551 94.16014 12.83972 6.31826 -58.14857 -8.62753 0.80263 1.06907
0.3912 -0.09372 0.00148 -181.23074 -47.48091 -0.14135 10.03145 4.81084 0.26086 3.47861 -4.03628 -0.83012 36.26294 -20.3157 22.54439 82.68809 93.67221 -14.2399 -8.09563 19.3935 26.07673 -18.79317 87.10152 -83.30205 -11.44601 6.12435 91.64889 -9.63763 -7.99766 -56.62886 -7.55571 -2.80527 -2.11086 91.63278 13.10901 7.27994 -56.0834 -8.74141 0.68249 1.01066
0.38287 -0.08475 -0.00131 -181.02081 -46.85076 0.04424 10.60729 4.85003 0.0717 3.91817 -3.75943 -0.83013 38.06602 -20.00922 23.62971 83.54484 96.15731 -14.78303 -7.82149 21.02733 25.79269 -20.0746 88.19686 -83.33 -11.76857 6.54144 89.23106 -9.56249 -8.34262 -54.8043 -7.5819 -2.79858 -2.10795 89.10189 13.26854 7.96074 -54.03547 -8.83188 0.59579 0.96898
0.37327 -0.07693 -0.00436 -180.9882 -46.24675 0.12994 11.55293 4.90604 -0.14016 4.32808 -3.60939 -0.83014 39.82088 -19.46865 24.89359 82.48413 97.15329 -14.64217 -8.0189 23.1539 25.07229 -21.46011 88.11711 -83.52954 -11.6436 6.79123 86.88155 -8.76197 -7.36533 -52.96947 -7.63195 -2.95019 -2.19731 86.63067 13.10458 7.81937 -52.0072 -8.85675 0.60641 0.97592
0.36318 -0.06962 -0.0075 -181.01917 -45.63557 0.1817 12.63336 4.96716 -0.36367 4.70834 -3.5056 -0.83014 41.52624 -18.85378 26.21794 80.73423 97.55879 -14.23222 -8.33797 25.44536 24.19907 -22.87837 87.61106 -83.77297 -11.3504 6.96591 84.54547 -7.71721 -5.93879 -51.14567 -7.68847 -3.15528 -2.31779 84.17021 12.83167 7.39492 -50.00184 -8.85792 0.65093 0.99984
0.3533 -0.06215 -0.0106 -181.02292 -45.02631 0.25024 13.65939 5.02402 -0.58461 5.08082 -3.38085 -0.83015 43.21155 -18.28048 27.50334 79.33356 98.12873 -13.90993 -8.55773 27.63199 23.40412 -24.26925 87.29818 -83.96818 -11.11511 7.14623 82.20857 -6.80529 -4.75175 -49.33078 -7.74009 -3.33142 -2.42136 81.71177 12.61812 7.11533 -48.00325 -8.87022 0.67867 1.01538
0.34345 -0.05439 -0.0137 -181.0178 -44.41163 0.31413 14.65301 5.08932 -0.795 5.54465 -3.25594 -0.83016 45.08456 -17.67288 28.844 77.75341 99.14278 -13.7323 -8.94884 29.96003 22.56784 -25.72103 86.9755 -84.28042 -10.96233 7.44822 79.83668 -5.80057 -3.41109 -47.45703 -7.80016 -3.52771 -2.53696 79.21049 12.36493 6.77457 -45.93046 -8.88141 0.71128 1.03326
0.33342 -0.04736 -0.01681 -181.04697 -43.81138 0.37917 15.74729 5.13824 -1.0296 5.80912 -3.14217 -0.83017 46.5483 -17.12252 30.07895 76.40395 99.10357 -13.19534 -9.02125 32.02122 21.78536 -27.04757 86.58629 -84.36371 -10.59783 7.48175 77.54722 -4.93285 -2.29019 -45.70982 -7.84374 -3.69395 -2.6344 76.80797 12.16681 6.488 -44.01986 -8.88886 0.74254 1.05066
0.323 -0.04215 -0.01994 -181.15504 -43.24534 0.45636 17.08839 5.13957 -1.33019 5.5479 -3.04955 -0.83018 46.93698 -16.71213 31.03563 75.73624 96.12425 -11.66626 -8.13693 33.37392 21.15895 -28.05694 85.99955 -83.76037 -9.66884 6.75085 75.46446 -4.48449 -1.82519 -44.29394 -7.84463 -3.7714 -2.67853 74.65492 12.15851 6.46011 -42.53328 -8.89504 0.75698 1.06021
0.31242 -0.03767 -0.02308 -181.29567 -42.69692 0.53558 18.52586 5.12438 -1.65426 5.08396 -2.96614 -0.8302 46.90744 -16.3682 31.87779 75.34946 92.13428 -9.79643 -6.93749 34.43801 20.59774 -28.93106 85.38316 -82.93279 -8.53588 5.75914 73.46937 -4.1854 -1.60676 -43.00802 -7.82798 -3.81554 -2.70255 72.60683 12.20729 6.48879 -41.21309 -8.89767 0.76982 1.06917
0.30192 -0.03292 -0.0262 -181.42183 -42.14681 0.61327 19.91909 5.11743 -1.96618 4.7011 -2.87759 -0.83021 47.03986 -16.01757 32.75336 74.91814 88.72054 -8.12511 -5.91504 35.58827 20.02644 -29.84308 84.8575 -82.2366 -7.50888 4.91364 71.44685 -3.83053 -1.31684 -41.67205 -7.81643 -3.87008 -2.73275 70.5253 12.22241 6.46472 -39.82798 -8.89968 0.78663 1.08
0.29134 -0.02795 -0.02938 -181.54897 -41.56966 0.69239 21.3207 5.10761 -2.28481 4.36312 -2.79517 -0.83023 47.28691 -15.56595 33.71041 74.11325 84.79646 -6.26037 -4.75563 36.93558 19.3672 -30.85811 83.98929 -81.4185 -6.41906 3.94979 69.37085 -3.41775 -0.84532 -40.29708 -7.81699 -3.94608 -2.77621 68.38192 12.26594 6.54417 -38.39625 -8.91011 0.79103 1.08468
0.28092 -0.0236 -0.03245 -181.68076 -41.05304 0.76944 22.72367 5.09973 -2.59483 3.88479 -2.70094 -0.83024 47.19949 -15.34044 34.46897 74.16001 81.69854 -4.72081 -3.80309 37.80026 18.90873 -31.62315 83.83497 -80.79924 -5.41512 3.17015 67.42863 -3.16234 -0.80976 -39.03578 -7.78839 -3.9693 -2.78726 66.39446 12.26576 6.42616 -37.10369 -8.90271 0.82033 1.10176
